<?xml version="1.0" encoding="UTF-8" standalone="no"?>
<!DOCTYPE svg PUBLIC "-//W3C//DTD SVG 20010904//EN"
              "http://www.w3.org/TR/2001/REC-SVG-20010904/DTD/svg10.dtd">

<svg xmlns="http://www.w3.org/2000/svg"
     width="0.888889in" height="0.888889in"
     viewBox="0 0 64 64">
  <path id="Selection"
        stroke-width="3"
        d="M 34.00,49.00
           C 30.70,42.13 29.77,37.34 21.02,38.06
             14.13,38.62 15.59,43.38 11.73,46.63
             10.27,47.86 8.34,48.51 7.06,46.63
             5.53,44.37 7.33,40.25 8.20,38.00
             8.20,38.00 17.52,17.00 17.52,17.00
             18.57,14.60 20.51,10.77 23.80,12.17
             26.38,13.26 28.22,18.54 29.47,21.00
             32.27,26.51 39.02,41.40 40.00,47.00
             40.00,47.00 34.00,49.00 34.00,49.00 Z
           M 23.00,24.00
           C 23.00,24.00 19.00,31.00 19.00,31.00
             19.00,31.00 26.00,31.00 26.00,31.00
             26.00,31.00 23.00,24.00 23.00,24.00 Z
           M 51.00,23.51
           C 60.71,22.32 61.60,28.30 59.38,30.30
             56.61,32.81 53.58,28.16 50.65,32.22
             47.09,37.16 51.35,48.08 46.01,48.26
             42.89,48.36 43.04,44.09 43.00,42.00
             42.94,38.70 42.15,26.95 44.60,25.07
             45.68,24.24 49.50,23.78 51.00,23.51 Z" />
</svg>
