<?xml version="1.0" encoding="UTF-8" standalone="no"?>
<!DOCTYPE svg PUBLIC "-//W3C//DTD SVG 20010904//EN"
              "http://www.w3.org/TR/2001/REC-SVG-20010904/DTD/svg10.dtd">

<svg xmlns="http://www.w3.org/2000/svg"
     width="0.888889in" height="0.888889in"
     viewBox="0 0 64 64">
  <path id="Selection"
        stroke-width="3"
        d="M 19.00,36.00
           C 19.00,36.00 26.00,43.00 26.00,43.00
             27.88,44.92 30.52,47.40 31.38,50.00
             32.71,54.01 30.01,56.71 26.00,55.38
             22.46,54.21 11.08,42.31 8.06,39.00
             6.24,37.01 4.29,34.88 4.29,32.00
             4.29,29.12 6.24,26.99 8.06,25.00
             11.08,21.69 22.46,9.79 26.00,8.62
             30.01,7.29 32.71,9.99 31.38,14.00
             30.52,16.60 27.88,19.08 26.00,21.00
             26.00,21.00 19.00,28.00 19.00,28.00
             19.00,28.00 53.00,28.00 53.00,28.00
             55.95,28.06 59.71,28.00 59.71,32.00
             59.71,36.00 55.95,35.94 53.00,36.00
             53.00,36.00 19.00,36.00 19.00,36.00 Z" />
</svg>
