<?xml version="1.0" encoding="UTF-8" standalone="no"?>
<!DOCTYPE svg PUBLIC "-//W3C//DTD SVG 20010904//EN"
              "http://www.w3.org/TR/2001/REC-SVG-20010904/DTD/svg10.dtd">

<svg xmlns="http://www.w3.org/2000/svg"
     width="0.888889in" height="0.888889in"
     viewBox="0 0 64 64">
  <path id="Selection"
        stroke-width="3"
        d="M 29.45,1.01
           C 34.51,-0.77 34.77,1.38 38.26,4.43
             41.70,7.44 44.26,8.48 46.43,13.00
             48.67,17.65 47.89,23.57 50.73,27.99
             53.87,32.84 60.34,35.45 62.99,42.00
             64.68,46.17 64.72,51.98 60.85,54.87
             55.40,58.95 45.64,58.83 41.00,60.54
             37.26,61.92 35.51,64.31 31.00,63.84
             26.43,63.35 26.81,60.95 18.00,59.41
             12.55,58.46 2.03,57.24 0.31,50.91
             -2.87,39.14 8.39,35.41 13.28,27.99
             16.56,23.00 15.26,17.81 17.57,13.00
             19.49,9.00 25.85,4.05 29.45,1.01 Z
           M 58.00,49.00
           C 41.04,43.45 22.96,43.45 6.00,49.00
             6.00,49.00 6.00,51.00 6.00,51.00
             6.00,51.00 24.00,55.00 24.00,55.00
             28.31,45.99 35.69,45.99 40.00,55.00
             40.00,55.00 58.00,51.00 58.00,51.00
             58.00,51.00 58.00,49.00 58.00,49.00 Z" />
</svg>
