<?xml version="1.0" encoding="UTF-8" standalone="no"?>
<!DOCTYPE svg PUBLIC "-//W3C//DTD SVG 20010904//EN"
              "http://www.w3.org/TR/2001/REC-SVG-20010904/DTD/svg10.dtd">

<svg xmlns="http://www.w3.org/2000/svg"
     width="0.888889in" height="0.888889in"
     viewBox="0 0 64 64">
  <path id="Selection"
        stroke-width="3"
        d="M 20.00,8.00
           C 20.03,5.86 19.73,2.50 21.60,1.02
             23.79,-0.71 37.20,-0.64 38.98,1.60
             40.16,3.09 39.98,6.17 40.00,8.00
             55.06,8.00 55.88,6.85 56.00,16.00
             56.00,16.00 4.00,16.00 4.00,16.00
             4.12,6.85 4.94,8.00 20.00,8.00 Z
           M 36.00,4.00
           C 36.00,4.00 24.00,4.00 24.00,4.00
             24.00,4.00 24.00,8.00 24.00,8.00
             24.00,8.00 36.00,8.00 36.00,8.00
             36.00,8.00 36.00,4.00 36.00,4.00 Z
           M 8.00,20.00
           C 8.00,20.00 52.00,20.00 52.00,20.00
             52.00,20.00 52.00,51.00 52.00,51.00
             52.00,51.00 50.98,62.40 50.98,62.40
             50.98,62.40 43.00,64.00 43.00,64.00
             43.00,64.00 16.00,64.00 16.00,64.00
             16.00,64.00 9.02,62.40 9.02,62.40
             9.02,62.40 8.00,55.00 8.00,55.00
             8.00,55.00 8.00,20.00 8.00,20.00 Z
           M 20.00,28.00
           C 20.00,28.00 16.00,28.00 16.00,28.00
             16.00,28.00 16.00,56.00 16.00,56.00
             16.00,56.00 20.00,56.00 20.00,56.00
             20.00,56.00 20.00,28.00 20.00,28.00 Z
           M 28.00,28.00
           C 28.00,28.00 24.00,28.00 24.00,28.00
             24.00,28.00 24.00,56.00 24.00,56.00
             24.00,56.00 28.00,56.00 28.00,56.00
             28.00,56.00 28.00,28.00 28.00,28.00 Z
           M 36.00,28.00
           C 36.00,28.00 32.00,28.00 32.00,28.00
             32.00,28.00 32.00,56.00 32.00,56.00
             32.00,56.00 36.00,56.00 36.00,56.00
             36.00,56.00 36.00,28.00 36.00,28.00 Z
           M 44.00,28.00
           C 44.00,28.00 40.00,28.00 40.00,28.00
             40.00,28.00 40.00,56.00 40.00,56.00
             40.00,56.00 44.00,56.00 44.00,56.00
             44.00,56.00 44.00,28.00 44.00,28.00 Z" />
</svg>
