<?xml version="1.0" encoding="UTF-8" standalone="no"?>
<!DOCTYPE svg PUBLIC "-//W3C//DTD SVG 20010904//EN"
              "http://www.w3.org/TR/2001/REC-SVG-20010904/DTD/svg10.dtd">

<svg xmlns="http://www.w3.org/2000/svg"
     width="0.888889in" height="0.888889in"
     viewBox="0 0 64 64">
  <path id="Selection"
        stroke-width="3"
        d="M 49.00,4.70
           C 52.24,3.97 55.91,3.41 58.78,5.60
             64.95,10.29 64.82,29.91 63.54,37.00
             62.81,41.05 61.08,47.71 56.90,49.40
             51.24,51.68 44.79,46.67 40.00,44.27
             40.00,44.27 30.00,40.05 30.00,40.05
             27.81,39.26 22.27,38.06 21.02,36.42
             19.56,34.49 19.99,27.59 20.00,25.00
             20.00,22.87 19.77,19.27 21.02,17.51
             22.51,15.41 27.51,14.47 30.00,13.56
             30.00,13.56 49.00,4.70 49.00,4.70 Z
           M 55.00,8.00
           C 55.00,8.00 53.00,8.00 53.00,8.00
             48.27,16.65 47.77,25.40 49.17,35.00
             49.52,37.41 50.79,43.80 54.02,43.80
             57.45,43.80 58.47,37.50 58.92,35.00
             60.67,25.13 59.91,16.87 55.00,8.00 Z
           M 17.00,37.00
           C 17.00,37.00 3.31,34.98 3.31,34.98
             -0.92,32.18 -1.30,21.79 3.31,19.02
             4.84,18.04 14.55,17.20 17.00,17.00
             17.00,17.00 17.00,37.00 17.00,37.00 Z
           M 15.00,38.00
           C 23.72,39.65 23.87,40.13 28.14,48.00
             29.24,50.03 31.09,53.36 30.30,55.73
             29.25,58.84 22.49,61.11 20.14,58.42
             18.82,56.93 17.43,50.24 16.87,48.00
             15.86,43.93 15.36,42.26 15.00,38.00 Z" />
</svg>
