<?xml version="1.0" encoding="UTF-8" standalone="no"?>
<!DOCTYPE svg PUBLIC "-//W3C//DTD SVG 20010904//EN"
              "http://www.w3.org/TR/2001/REC-SVG-20010904/DTD/svg10.dtd">

<svg xmlns="http://www.w3.org/2000/svg"
     width="0.888889in" height="0.888889in"
     viewBox="0 0 64 64">
  <path id="Selection"
        stroke-width="3"
        d="M 18.00,16.00
           C 19.23,5.42 27.61,7.94 36.00,8.00
             38.53,8.02 41.53,7.82 43.57,9.60
             45.58,11.35 45.72,13.56 46.00,16.00
             61.98,16.00 63.84,14.63 64.00,23.00
             64.00,23.00 64.00,48.00 64.00,48.00
             64.00,50.41 64.40,56.60 62.98,58.40
             61.41,60.38 57.30,60.00 55.00,60.00
             55.00,60.00 7.00,60.00 7.00,60.00
             -0.49,59.86 0.01,57.74 0.00,51.00
             0.00,51.00 0.00,24.00 0.00,24.00
             0.02,21.87 -0.26,18.49 1.60,17.02
             3.62,15.42 14.90,16.00 18.00,16.00 Z
           M 28.00,21.39
           C 5.64,28.11 14.35,59.32 36.00,54.61
             48.82,51.83 53.25,35.57 44.61,26.21
             40.12,21.34 34.21,20.56 28.00,21.39 Z
           M 60.00,24.00
           C 60.00,24.00 52.00,24.00 52.00,24.00
             52.00,24.00 52.00,28.00 52.00,28.00
             52.00,28.00 60.00,28.00 60.00,28.00
             60.00,28.00 60.00,24.00 60.00,24.00 Z
           M 27.01,25.70
           C 32.19,24.52 37.45,24.51 41.47,28.53
             47.76,34.82 45.62,47.30 36.99,50.30
             20.18,56.13 11.33,33.10 27.01,25.70 Z" />
</svg>
