<?xml version="1.0" encoding="UTF-8" standalone="no"?>
<!DOCTYPE svg PUBLIC "-//W3C//DTD SVG 20010904//EN"
              "http://www.w3.org/TR/2001/REC-SVG-20010904/DTD/svg10.dtd">

<svg xmlns="http://www.w3.org/2000/svg"
     width="0.888889in" height="0.888889in"
     viewBox="0 0 64 64">
  <path id="Selection"
        stroke-width="3"
        d="M 25.00,4.52
           C 36.28,2.73 46.85,4.68 54.32,14.04
             66.74,29.61 59.01,55.20 39.00,59.48
             35.13,60.31 28.87,60.31 25.00,59.48
             -2.55,53.59 -4.16,12.38 25.00,4.52 Z
           M 32.00,7.57
           C 24.15,8.17 17.53,10.63 12.53,17.01
             3.34,28.76 7.79,47.40 21.00,54.00
             25.26,56.13 29.36,56.10 34.00,55.99
             53.66,55.48 62.37,32.12 51.41,17.01
             46.54,10.29 39.92,8.03 32.00,7.57 Z
           M 29.00,14.00
           C 29.00,14.00 31.00,14.00 31.00,14.00
             31.00,27.73 28.41,31.99 41.00,41.00
             41.00,41.00 38.00,44.00 38.00,44.00
             38.00,44.00 30.02,35.00 30.02,35.00
             30.02,35.00 29.00,14.00 29.00,14.00 Z" />
</svg>
