<?xml version="1.0" encoding="UTF-8" standalone="no"?>
<!DOCTYPE svg PUBLIC "-//W3C//DTD SVG 20010904//EN"
              "http://www.w3.org/TR/2001/REC-SVG-20010904/DTD/svg10.dtd">

<svg xmlns="http://www.w3.org/2000/svg"
     width="0.888889in" height="0.888889in"
     viewBox="0 0 64 64">
  <path id="Selection"
        stroke-width="3"
        d="M 25.00,0.00
           C 25.00,0.00 39.00,0.00 39.00,0.00
             41.11,10.34 47.52,13.05 57.00,10.00
             57.00,10.00 62.03,21.00 62.03,21.00
             62.03,21.00 57.42,32.00 57.42,32.00
             57.42,32.00 62.03,43.00 62.03,43.00
             62.03,43.00 57.00,54.00 57.00,54.00
             55.06,53.57 51.85,52.61 50.00,52.66
             43.65,52.84 40.14,58.43 39.00,64.00
             39.00,64.00 25.00,64.00 25.00,64.00
             22.85,53.89 16.23,51.03 7.00,54.00
             7.00,54.00 1.97,43.00 1.97,43.00
             1.97,43.00 6.35,32.00 6.35,32.00
             6.35,32.00 1.97,21.00 1.97,21.00
             1.97,21.00 7.00,10.00 7.00,10.00
             16.48,13.05 22.89,10.34 25.00,0.00 Z
           M 28.00,20.43
           C 12.86,26.45 19.97,47.96 36.00,43.57
             44.00,41.38 46.62,30.28 41.57,24.11
             37.91,19.63 33.23,19.64 28.00,20.43 Z" />
</svg>
