<?xml version="1.0" encoding="UTF-8" standalone="no"?>
<!DOCTYPE svg PUBLIC "-//W3C//DTD SVG 20010904//EN"
              "http://www.w3.org/TR/2001/REC-SVG-20010904/DTD/svg10.dtd">

<svg xmlns="http://www.w3.org/2000/svg"
     width="0.888889in" height="0.888889in"
     viewBox="0 0 64 64">
  <path id="Selection #1"
        stroke-width="3"
        d="M 11.00,36.00
           C 11.00,36.00 17.00,36.00 17.00,36.00
             17.00,36.00 18.00,41.00 18.00,41.00
             23.94,37.55 26.45,40.06 23.00,46.00
             23.00,46.00 28.00,47.00 28.00,47.00
             28.00,47.00 28.00,53.00 28.00,53.00
             28.00,53.00 23.00,54.00 23.00,54.00
             26.45,59.94 23.94,62.45 18.00,59.00
             18.00,59.00 17.00,64.00 17.00,64.00
             17.00,64.00 11.00,64.00 11.00,64.00
             11.00,64.00 10.00,59.00 10.00,59.00
             4.06,62.45 1.55,59.94 5.00,54.00
             5.00,54.00 0.00,53.00 0.00,53.00
             0.00,53.00 0.00,47.00 0.00,47.00
             0.00,47.00 5.00,46.00 5.00,46.00
             1.55,40.06 4.06,37.55 10.00,41.00
             10.00,41.00 11.00,36.00 11.00,36.00 Z
           M 13.26,47.74
           C 9.68,50.62 12.83,52.87 14.74,52.26
             16.58,51.66 17.91,47.97 13.26,47.74 Z
           M 39.00,0.00
           C 39.00,0.00 45.00,0.00 45.00,0.00
             45.00,0.00 45.00,4.00 45.00,4.00
             48.59,1.54 48.68,1.30 53.00,2.00
             53.00,2.00 52.00,7.00 52.00,7.00
             57.51,4.86 59.14,6.49 57.00,12.00
             57.00,12.00 62.00,11.00 62.00,11.00
             62.70,15.32 62.46,15.41 60.00,19.00
             60.00,19.00 64.00,19.00 64.00,19.00
             64.00,19.00 64.00,25.00 64.00,25.00
             64.00,25.00 60.00,25.00 60.00,25.00
             62.46,28.59 62.70,28.68 62.00,33.00
             62.00,33.00 57.00,32.00 57.00,32.00
             59.06,37.30 57.30,39.06 52.00,37.00
             52.00,37.00 53.00,42.00 53.00,42.00
             48.68,42.70 48.59,42.46 45.00,40.00
             45.00,40.00 45.00,44.00 45.00,44.00
             45.00,44.00 39.00,44.00 39.00,44.00
             39.00,44.00 39.00,40.00 39.00,40.00
             35.41,42.46 35.32,42.70 31.00,42.00
             31.00,42.00 32.00,37.00 32.00,37.00
             26.49,39.14 24.86,37.51 27.00,32.00
             27.00,32.00 22.00,33.00 22.00,33.00
             21.30,28.68 21.54,28.59 24.00,25.00
             24.00,25.00 20.00,25.00 20.00,25.00
             20.00,25.00 20.00,19.00 20.00,19.00
             20.00,19.00 24.00,19.00 24.00,19.00
             21.54,15.41 21.30,15.32 22.00,11.00
             22.00,11.00 27.00,12.00 27.00,12.00
             24.94,6.70 26.70,4.94 32.00,7.00
             32.00,7.00 31.00,2.00 31.00,2.00
             35.32,1.30 35.41,1.54 39.00,4.00
             39.00,4.00 39.00,0.00 39.00,0.00 Z
           M 40.02,14.45
           C 29.19,18.88 34.97,31.81 43.98,29.55
             52.32,27.47 52.37,13.23 40.02,14.45 Z" />
</svg>
