<?xml version="1.0" encoding="UTF-8" standalone="no"?>
<!DOCTYPE svg PUBLIC "-//W3C//DTD SVG 20010904//EN"
              "http://www.w3.org/TR/2001/REC-SVG-20010904/DTD/svg10.dtd">

<svg xmlns="http://www.w3.org/2000/svg"
     width="1in" height="0.888889in"
     viewBox="0 0 72 64">
  <path id="Selection"
        stroke-width="3"
        d="M 3.00,59.00
           C 4.89,53.22 9.46,51.93 9.51,48.00
             9.56,44.40 4.70,41.53 2.01,37.00
             -0.46,32.86 -0.01,28.62 0.00,24.00
             0.00,21.47 -0.11,18.41 0.65,16.00
             1.63,12.88 3.77,10.32 6.04,8.04
             15.59,-1.51 24.68,-0.14 37.00,0.00
             51.36,0.18 62.67,10.46 63.00,25.00
             50.54,20.96 36.14,23.93 31.90,38.00
             30.41,42.51 31.41,46.49 31.90,51.00
             31.90,51.00 17.00,57.07 17.00,57.07
             17.00,57.07 3.00,59.00 3.00,59.00 Z
           M 72.00,64.00
           C 61.10,63.89 63.57,61.54 57.00,60.27
             53.03,59.50 48.32,60.92 43.02,57.30
             33.99,51.14 33.51,38.22 42.04,31.42
             49.99,25.08 64.67,27.18 69.99,36.00
             75.01,44.32 69.36,52.88 69.10,55.58
             68.86,58.01 71.03,61.58 72.00,64.00 Z" />
</svg>
