<?xml version="1.0" encoding="UTF-8" standalone="no"?>
<!DOCTYPE svg PUBLIC "-//W3C//DTD SVG 20010904//EN"
              "http://www.w3.org/TR/2001/REC-SVG-20010904/DTD/svg10.dtd">

<svg xmlns="http://www.w3.org/2000/svg"
     width="1in" height="0.888889in"
     viewBox="0 0 72 64">
  <path id="Selection"
        stroke-width="3"
        d="M 4.00,56.00
           C 6.06,51.62 10.26,47.91 9.97,45.17
             9.74,42.96 5.23,39.24 3.65,37.00
             -0.78,30.71 -1.35,20.73 2.35,14.00
             11.40,-2.43 38.26,-4.60 51.83,6.90
             63.72,16.98 62.69,34.29 50.00,43.20
             40.99,49.53 30.45,48.52 27.00,49.51
             27.00,49.51 18.00,53.91 18.00,53.91
             12.55,56.13 9.68,56.00 4.00,56.00 Z
           M 64.00,22.00
           C 72.21,26.27 74.35,38.17 69.91,46.00
             67.80,49.74 64.32,52.04 64.03,55.00
             63.81,57.22 66.92,61.58 68.00,64.00
             53.09,63.96 55.43,59.95 48.00,58.30
             42.99,57.19 36.20,58.89 30.00,53.00
             47.97,51.53 63.82,41.64 64.00,22.00 Z" />
</svg>
