<?xml version="1.0" encoding="UTF-8" standalone="no"?>
<!DOCTYPE svg PUBLIC "-//W3C//DTD SVG 20010904//EN"
              "http://www.w3.org/TR/2001/REC-SVG-20010904/DTD/svg10.dtd">

<svg xmlns="http://www.w3.org/2000/svg"
     width="0.888889in" height="0.888889in"
     viewBox="0 0 64 64">
  <path id="Selection"
        stroke-width="3"
        d="M 24.00,0.52
           C 30.56,-0.52 38.80,-0.45 45.00,2.09
             58.99,7.84 64.17,19.87 64.00,34.00
             63.93,39.50 62.86,44.28 59.87,49.00
             52.41,60.75 43.18,64.15 30.00,64.00
             16.12,63.83 3.44,53.69 0.52,40.00
             -0.13,36.97 -0.03,33.13 0.00,30.00
             0.06,25.40 0.57,22.24 2.52,18.00
             6.59,9.10 14.73,3.01 24.00,0.52 Z
           M 32.00,8.00
           C 25.76,9.18 20.00,10.65 15.33,15.33
             6.00,24.65 6.21,40.69 16.18,49.47
             20.88,53.61 26.06,54.88 32.00,56.00
             32.00,56.00 32.00,8.00 32.00,8.00 Z" />
</svg>
