<?xml version="1.0" encoding="UTF-8" standalone="no"?>
<!DOCTYPE svg PUBLIC "-//W3C//DTD SVG 20010904//EN"
              "http://www.w3.org/TR/2001/REC-SVG-20010904/DTD/svg10.dtd">

<svg xmlns="http://www.w3.org/2000/svg"
     width="0.888889in" height="0.888889in"
     viewBox="0 0 64 64">
  <path id="Selection"
        stroke-width="3"
        d="M 23.00,4.47
           C 34.53,2.86 45.48,4.66 53.32,14.09
             67.23,30.82 59.34,59.32 37.00,63.53
             26.44,65.53 14.86,62.95 7.47,54.83
             -8.08,37.75 0.63,9.79 23.00,4.47 Z
           M 29.00,10.38
           C 18.60,11.77 11.00,16.70 7.60,27.00
             2.65,41.95 15.05,58.61 31.00,57.62
             55.33,56.12 62.26,23.54 40.00,12.82
             36.28,11.03 33.08,10.42 29.00,10.38 Z
           M 14.00,32.00
           C 15.32,28.22 16.63,24.12 20.10,21.74
             23.67,19.29 36.34,19.17 39.85,21.74
             42.33,23.55 42.55,25.22 43.00,28.00
             33.81,26.60 31.92,19.78 21.00,28.00
             21.00,28.00 23.00,28.00 23.00,28.00
             23.00,28.00 22.00,32.00 22.00,32.00
             18.17,38.45 24.38,44.24 31.00,43.85
             35.95,43.56 36.39,41.00 43.00,40.00
             42.62,42.35 42.54,43.77 40.69,45.57
             37.41,48.74 24.95,48.89 21.04,46.83
             18.42,45.44 16.27,42.18 14.00,40.00
             14.00,40.00 14.00,36.00 14.00,36.00
             14.00,36.00 14.00,32.00 14.00,32.00 Z" />
</svg>
