<?xml version="1.0" encoding="UTF-8" standalone="no"?>
<!DOCTYPE svg PUBLIC "-//W3C//DTD SVG 20010904//EN"
              "http://www.w3.org/TR/2001/REC-SVG-20010904/DTD/svg10.dtd">

<svg xmlns="http://www.w3.org/2000/svg"
     width="0.888889in" height="0.888889in"
     viewBox="0 0 64 64">
  <path id="Selection"
        stroke-width="3"
        d="M 9.00,1.08
           C 18.16,-0.63 23.78,14.90 31.00,16.80
             33.81,17.55 36.19,14.73 38.00,12.99
             40.52,10.57 47.62,3.02 50.00,1.62
             56.16,-2.01 64.06,8.25 63.26,12.00
             62.23,16.79 48.27,26.94 47.20,31.00
             46.39,34.08 50.09,37.06 52.00,39.00
             62.77,49.92 66.85,51.74 59.94,58.98
             58.74,60.24 56.60,62.26 55.00,62.92
             51.65,64.31 49.33,62.07 47.00,59.94
             44.29,57.47 35.72,47.91 33.00,47.20
             30.19,46.45 27.81,49.27 26.00,51.01
             23.16,53.75 15.37,62.54 12.00,63.26
             8.63,63.98 -3.05,56.33 2.32,49.00
             2.32,49.00 12.99,38.00 12.99,38.00
             14.41,36.52 16.96,34.20 16.96,32.00
             16.96,29.80 14.41,27.48 12.99,26.00
             1.73,14.31 -3.18,12.61 4.06,5.02
             5.85,3.14 6.87,2.44 9.00,1.08 Z" />
</svg>
