<?xml version="1.0" encoding="UTF-8" standalone="no"?>
<!DOCTYPE svg PUBLIC "-//W3C//DTD SVG 20010904//EN"
              "http://www.w3.org/TR/2001/REC-SVG-20010904/DTD/svg10.dtd">

<svg xmlns="http://www.w3.org/2000/svg"
     width="0.888889in" height="0.888889in"
     viewBox="0 0 64 64">
  <path id="Selection"
        stroke-width="3"
        d="M 28.00,4.00
           C 28.00,4.00 36.00,4.00 36.00,4.00
             36.00,4.00 36.00,20.00 36.00,20.00
             36.00,20.00 48.00,20.00 48.00,20.00
             45.68,23.24 35.77,34.80 32.00,34.80
             28.23,34.80 18.32,23.24 16.00,20.00
             16.00,20.00 28.00,20.00 28.00,20.00
             28.00,20.00 28.00,4.00 28.00,4.00 Z
           M 0.00,35.00
           C 11.39,31.93 17.26,25.35 22.00,35.00
             22.00,35.00 8.00,40.00 8.00,40.00
             8.00,40.00 32.00,48.35 32.00,48.35
             32.00,48.35 56.00,40.00 56.00,40.00
             56.00,40.00 42.00,35.00 42.00,35.00
             46.74,25.35 52.61,31.93 64.00,35.00
             64.00,35.00 64.00,53.00 64.00,53.00
             64.00,53.00 32.00,63.79 32.00,63.79
             32.00,63.79 0.00,53.00 0.00,53.00
             0.00,53.00 0.00,35.00 0.00,35.00 Z" />
</svg>
