<?xml version="1.0" encoding="UTF-8" standalone="no"?>
<!DOCTYPE svg PUBLIC "-//W3C//DTD SVG 20010904//EN"
              "http://www.w3.org/TR/2001/REC-SVG-20010904/DTD/svg10.dtd">

<svg xmlns="http://www.w3.org/2000/svg"
     width="0.888889in" height="0.888889in"
     viewBox="0 0 1000 1000">
  <path id="Selection"
        stroke-width="3"
        d="M 116.00,10.64
           C 121.67,9.50 132.74,10.00 139.00,10.00
             139.00,10.00 180.00,10.00 180.00,10.00
             180.00,10.00 311.00,10.00 311.00,10.00
             311.00,10.00 720.00,10.00 720.00,10.00
             720.00,10.00 876.00,10.00 876.00,10.00
             891.85,10.08 899.98,19.58 900.00,35.00
             900.00,35.00 900.00,805.00 900.00,805.00
             899.99,809.15 900.12,812.03 898.52,816.00
             896.04,822.14 890.60,827.39 886.00,832.00
             886.00,832.00 866.00,852.00 866.00,852.00
             866.00,852.00 840.00,877.96 840.00,877.96
             840.00,877.96 830.00,887.01 830.00,887.01
             830.00,887.01 763.00,954.00 763.00,954.00
             763.00,954.00 743.00,974.00 743.00,974.00
             732.81,984.19 730.11,989.98 715.00,990.00
             715.00,990.00 243.00,990.00 243.00,990.00
             243.00,990.00 125.00,990.00 125.00,990.00
             108.67,989.97 100.03,981.33 100.00,965.00
             100.00,965.00 100.00,239.00 100.00,239.00
             100.00,239.00 100.00,68.00 100.00,68.00
             100.00,68.00 100.00,45.00 100.00,45.00
             100.00,29.64 98.51,17.24 116.00,10.64 Z
           M 853.00,57.00
           C 853.00,57.00 147.00,57.00 147.00,57.00
             147.00,57.00 147.00,943.00 147.00,943.00
             147.00,943.00 693.00,943.00 693.00,943.00
             693.00,943.00 693.00,809.00 693.00,809.00
             693.03,791.84 703.19,783.03 720.00,783.00
             720.00,783.00 853.00,783.00 853.00,783.00
             853.00,783.00 853.00,57.00 853.00,57.00 Z
           M 319.00,323.00
           C 314.28,329.59 295.87,347.13 289.00,354.00
             282.07,360.93 276.53,367.50 266.00,367.96
             252.77,368.54 241.35,359.70 241.01,346.00
             240.67,331.99 246.66,327.34 256.00,318.00
             256.00,318.00 270.00,304.00 270.00,304.00
             272.60,301.40 282.96,292.18 282.96,289.00
             282.96,285.82 272.60,276.60 270.00,274.00
             263.62,267.62 245.60,251.09 242.53,244.00
             240.97,240.39 240.92,236.86 241.01,233.00
             241.34,219.60 252.41,209.15 266.00,210.33
             277.91,211.36 283.08,218.08 291.00,226.00
             291.00,226.00 320.00,255.00 320.00,255.00
             324.56,248.63 338.70,235.30 345.00,229.00
             353.57,220.43 360.05,211.45 373.00,210.33
             386.59,209.15 397.66,219.60 397.99,233.00
             398.08,236.86 398.03,240.39 396.47,244.00
             393.40,251.09 375.38,267.62 369.00,274.00
             366.40,276.60 356.04,285.82 356.04,289.00
             356.04,292.18 366.40,301.40 369.00,304.00
             369.00,304.00 383.00,318.00 383.00,318.00
             392.34,327.34 398.33,331.99 397.99,346.00
             397.65,359.70 386.23,368.54 373.00,367.96
             362.47,367.50 356.93,360.93 350.00,354.00
             350.00,354.00 319.00,323.00 319.00,323.00 Z
           M 680.00,323.00
           C 675.28,329.59 656.87,347.13 650.00,354.00
             643.07,360.93 637.54,367.50 627.00,367.96
             609.47,368.73 598.95,354.81 602.38,338.00
             603.86,330.73 608.99,326.01 614.00,321.00
             614.00,321.00 633.00,302.00 633.00,302.00
             635.39,299.61 643.96,292.10 643.96,289.00
             643.96,285.79 632.70,275.70 630.00,273.00
             623.87,266.87 606.30,250.78 603.36,244.00
             598.54,232.86 603.05,218.48 614.00,213.00
             618.36,210.81 622.27,210.94 627.00,211.00
             637.41,211.14 641.05,216.06 648.00,223.00
             648.00,223.00 666.00,241.00 666.00,241.00
             668.50,243.50 676.86,252.96 680.00,252.96
             683.21,252.96 693.30,241.70 696.00,239.00
             702.55,232.45 718.31,214.95 726.00,212.13
             729.52,210.84 733.31,210.96 737.00,211.00
             751.09,211.19 759.55,222.48 758.96,236.00
             758.50,246.54 751.93,252.07 745.00,259.00
             745.00,259.00 714.00,290.00 714.00,290.00
             720.54,294.68 737.25,312.25 744.00,319.00
             748.39,323.39 755.26,329.28 757.44,335.00
             763.20,350.11 753.74,367.22 737.00,367.96
             722.93,368.58 718.15,361.15 709.00,352.00
             709.00,352.00 680.00,323.00 680.00,323.00 Z
           M 487.00,476.21
           C 487.00,476.21 505.00,476.21 505.00,476.21
             505.00,476.21 517.00,477.04 517.00,477.04
             517.00,477.04 526.00,477.04 526.00,477.04
             579.67,482.28 626.41,499.91 668.00,534.75
             678.29,543.37 691.77,557.28 699.87,568.00
             704.78,574.50 709.39,580.53 709.91,589.00
             711.17,609.52 688.54,620.95 672.01,610.03
             667.60,607.12 664.77,602.18 661.63,598.00
             661.63,598.00 648.83,583.00 648.83,583.00
             638.23,571.43 618.86,557.59 605.00,549.86
             537.76,512.35 446.44,515.73 382.00,557.69
             372.59,563.82 356.59,576.72 349.28,585.00
             349.28,585.00 328.96,609.21 328.96,609.21
             312.67,621.41 288.80,610.03 290.09,589.00
             290.59,580.94 294.71,575.22 299.37,569.00
             308.07,557.40 312.91,552.94 323.00,542.99
             353.18,513.24 396.67,491.62 438.00,482.66
             438.00,482.66 474.00,477.17 474.00,477.17
             474.00,477.17 487.00,476.21 487.00,476.21 Z
           M 819.00,830.00
           C 819.00,830.00 740.00,830.00 740.00,830.00
             740.00,830.00 740.00,909.00 740.00,909.00
             740.00,909.00 780.00,870.00 780.00,870.00
             780.00,870.00 819.00,830.00 819.00,830.00 Z" />
</svg>
