<?xml version="1.0" encoding="UTF-8" standalone="no"?>
<!DOCTYPE svg PUBLIC "-//W3C//DTD SVG 20010904//EN"
              "http://www.w3.org/TR/2001/REC-SVG-20010904/DTD/svg10.dtd">

<svg xmlns="http://www.w3.org/2000/svg"
     width="0.888889in" height="0.888889in"
     viewBox="0 0 64 64">
  <path id="Selection"
        stroke-width="3"
        d="M 3.00,8.00
           C 3.00,8.00 41.00,8.00 41.00,8.00
             41.00,8.00 62.00,9.00 62.00,9.00
             62.00,9.00 42.00,30.00 42.00,30.00
             42.00,30.00 33.00,36.80 33.00,36.80
             33.00,36.80 24.00,30.00 24.00,30.00
             24.00,30.00 3.00,8.00 3.00,8.00 Z
           M 0.00,13.00
           C 6.22,17.45 17.06,29.06 23.00,35.00
             25.03,37.03 30.15,42.96 33.00,42.96
             35.73,42.96 40.10,37.90 42.00,36.00
             47.83,30.18 57.83,19.42 64.00,15.00
             64.00,15.00 64.00,49.00 64.00,49.00
             64.00,51.76 64.35,56.18 62.26,58.26
             60.18,60.35 55.76,60.00 53.00,60.00
             53.00,60.00 17.00,60.00 17.00,60.00
             13.69,60.00 4.92,60.54 2.43,58.83
             -0.47,56.83 0.01,52.12 0.00,49.00
             0.00,49.00 0.00,13.00 0.00,13.00 Z" />
</svg>
