<?xml version="1.0" encoding="UTF-8" standalone="no"?>
<!DOCTYPE svg PUBLIC "-//W3C//DTD SVG 20010904//EN"
              "http://www.w3.org/TR/2001/REC-SVG-20010904/DTD/svg10.dtd">

<svg xmlns="http://www.w3.org/2000/svg"
     width="0.888889in" height="0.888889in"
     viewBox="0 0 64 64">
  <path id="Selection"
        stroke-width="3"
        d="M 12.00,8.00
           C 12.43,6.77 12.38,5.95 13.59,5.02
             15.51,3.56 24.49,3.56 26.41,5.02
             27.62,5.95 27.57,6.77 28.00,8.00
             28.00,8.00 64.00,8.00 64.00,8.00
             64.00,8.00 64.00,16.00 64.00,16.00
             64.00,16.00 28.00,16.00 28.00,16.00
             27.57,17.23 27.62,18.05 26.41,18.98
             24.49,20.44 15.51,20.44 13.59,18.98
             12.38,18.05 12.43,17.23 12.00,16.00
             12.00,16.00 0.00,16.00 0.00,16.00
             0.00,16.00 0.00,8.00 0.00,8.00
             0.00,8.00 12.00,8.00 12.00,8.00 Z
           M 24.00,8.00
           C 24.00,8.00 16.00,8.00 16.00,8.00
             16.00,8.00 16.00,16.00 16.00,16.00
             16.00,16.00 24.00,16.00 24.00,16.00
             24.00,16.00 24.00,8.00 24.00,8.00 Z
           M 36.00,28.00
           C 36.43,26.77 36.38,25.95 37.59,25.02
             39.51,23.56 48.49,23.56 50.41,25.02
             51.62,25.95 51.57,26.77 52.00,28.00
             52.00,28.00 64.00,28.00 64.00,28.00
             64.00,28.00 64.00,36.00 64.00,36.00
             64.00,36.00 52.00,36.00 52.00,36.00
             51.57,37.23 51.62,38.05 50.41,38.98
             48.49,40.44 39.51,40.44 37.59,38.98
             36.38,38.05 36.43,37.23 36.00,36.00
             36.00,36.00 0.00,36.00 0.00,36.00
             0.00,36.00 0.00,28.00 0.00,28.00
             0.00,28.00 36.00,28.00 36.00,28.00 Z
           M 48.00,28.00
           C 48.00,28.00 40.00,28.00 40.00,28.00
             40.00,28.00 40.00,36.00 40.00,36.00
             40.00,36.00 48.00,36.00 48.00,36.00
             48.00,36.00 48.00,28.00 48.00,28.00 Z
           M 12.00,48.00
           C 12.43,46.77 12.38,45.95 13.59,45.02
             15.53,43.54 24.47,43.54 26.41,45.02
             27.62,45.95 27.57,46.77 28.00,48.00
             28.00,48.00 64.00,48.00 64.00,48.00
             64.00,48.00 64.00,56.00 64.00,56.00
             64.00,56.00 28.00,56.00 28.00,56.00
             27.57,57.23 27.62,58.05 26.41,58.98
             24.49,60.44 15.51,60.44 13.59,58.98
             12.38,58.05 12.43,57.23 12.00,56.00
             12.00,56.00 0.00,56.00 0.00,56.00
             0.00,56.00 0.00,48.00 0.00,48.00
             0.00,48.00 12.00,48.00 12.00,48.00 Z
           M 24.00,48.00
           C 24.00,48.00 16.00,48.00 16.00,48.00
             16.00,48.00 16.00,56.00 16.00,56.00
             16.00,56.00 24.00,56.00 24.00,56.00
             24.00,56.00 24.00,48.00 24.00,48.00 Z" />
</svg>
