<?xml version="1.0" encoding="UTF-8" standalone="no"?>
<!DOCTYPE svg PUBLIC "-//W3C//DTD SVG 20010904//EN"
              "http://www.w3.org/TR/2001/REC-SVG-20010904/DTD/svg10.dtd">

<svg xmlns="http://www.w3.org/2000/svg"
     width="0.888889in" height="0.888889in"
     viewBox="0 0 64 64">
  <path id="Selection"
        stroke-width="3"
        d="M 10.00,45.00
           C 7.65,43.28 6.36,42.26 4.47,39.98
             -1.99,32.23 0.17,27.72 7.09,21.18
             14.70,13.99 22.91,11.96 33.00,12.00
             36.87,12.02 40.64,12.89 44.00,10.60
             47.36,8.31 52.97,0.63 56.85,0.63
             60.91,0.63 59.06,5.14 57.68,7.00
             57.68,7.00 42.00,23.00 42.00,23.00
             42.00,23.00 27.00,38.00 27.00,38.00
             27.00,38.00 13.00,52.00 13.00,52.00
             11.11,53.89 7.34,57.92 5.02,58.92
             1.80,60.31 -0.31,58.20 1.08,54.98
             2.18,52.44 7.82,47.18 10.00,45.00 Z
           M 27.00,43.00
           C 31.13,37.23 37.86,31.13 43.00,26.00
             44.81,24.20 48.69,19.98 51.00,19.25
             55.92,17.68 63.55,27.57 63.55,32.00
             63.55,35.63 59.42,40.44 56.91,42.82
             46.07,53.06 33.73,52.81 20.00,51.00
             21.27,48.42 22.08,46.68 25.02,45.61
             25.02,45.61 37.00,44.83 37.00,44.83
             42.24,43.91 55.88,37.51 54.40,31.00
             53.72,28.04 50.30,25.67 48.00,24.00
             48.00,26.74 48.16,30.42 47.35,33.00
             44.53,41.99 35.54,45.42 27.00,43.00 Z
           M 26.00,21.00
           C 18.27,22.76 20.90,29.80 24.13,29.80
             26.84,29.80 34.34,23.21 26.00,21.00 Z
           M 16.00,24.00
           C 12.35,25.74 7.39,29.22 9.28,34.00
             10.36,36.72 14.87,40.90 16.88,37.63
             16.88,37.63 16.00,24.00 16.00,24.00 Z" />
</svg>
