<?xml version="1.0" encoding="UTF-8" standalone="no"?>
<!DOCTYPE svg PUBLIC "-//W3C//DTD SVG 20010904//EN"
              "http://www.w3.org/TR/2001/REC-SVG-20010904/DTD/svg10.dtd">

<svg xmlns="http://www.w3.org/2000/svg"
     width="0.888889in" height="0.888889in"
     viewBox="0 0 64 64">
  <path id="Selection"
        stroke-width="3"
        d="M 24.00,12.47
           C 36.06,10.78 47.72,12.50 56.91,21.18
             59.19,23.34 62.99,27.83 63.47,31.00
             64.02,34.62 60.97,38.43 58.70,40.96
             50.80,49.80 41.31,52.13 30.00,52.00
             20.76,51.89 11.51,47.91 5.30,40.96
             3.31,38.74 0.45,35.11 0.45,32.00
             0.45,22.78 16.15,14.33 24.00,12.47 Z
           M 26.00,20.86
           C 17.39,23.07 21.11,31.14 26.00,31.14
             30.89,31.14 34.61,23.07 26.00,20.86 Z
           M 16.00,24.00
           C 4.26,29.60 8.70,37.14 18.00,42.02
             26.93,46.70 38.26,46.54 47.00,41.47
             56.02,36.25 59.00,29.25 48.00,24.00
             47.99,28.75 48.23,31.86 45.35,36.00
             37.66,47.04 23.53,46.13 17.45,34.00
             15.81,30.71 16.01,27.55 16.00,24.00 Z" />
</svg>
