<svg width="100" height="100" viewBox="0 0 25 18" xmlns="http://www.w3.org/2000/svg">
<g clip-path="url(#clip0)">
<path d="M24.8243 6.92795C24.7766 6.8644 23.6317 5.35219 21.5515 3.8394C18.787 1.8287 15.6573 0.765991 12.5005 0.765991C9.34388 0.765991 6.21407 1.8287 3.44951 3.83931C1.3692 5.35219 0.224083 6.8644 0.17644 6.92795C-0.0583249 7.241 -0.0583249 7.6713 0.17644 7.98435C0.218275 8.04016 1.10397 9.20952 2.72375 10.5167L1.5458 12.8724C1.32838 13.3072 1.50464 13.836 1.93957 14.0533C2.06592 14.1165 2.20018 14.1464 2.3325 14.1464C2.6554 14.1464 2.96626 13.9681 3.12047 13.6596L4.16668 11.5674C5.06273 12.1535 5.99236 12.6434 6.94522 13.0331L5.90321 15.1171C5.68579 15.5519 5.86205 16.0807 6.29699 16.2981C6.42333 16.3612 6.55768 16.3911 6.68992 16.3911C7.01281 16.3911 7.32376 16.2128 7.47796 15.9043L8.62536 13.6095C9.61021 13.8844 10.6122 14.0557 11.6201 14.1186V16.1709C11.6201 16.657 12.0143 17.0512 12.5004 17.0512C12.9866 17.0512 13.3808 16.657 13.3808 16.1709V14.1186C14.3888 14.0557 15.3907 13.8844 16.3755 13.6095L17.5229 15.9043C17.6772 16.2128 17.988 16.3911 18.311 16.3911C18.4432 16.3911 18.5776 16.3612 18.7039 16.2981C19.1388 16.0807 19.3151 15.5519 19.0977 15.1171L18.0557 13.0332C19.0086 12.6434 19.9382 12.1535 20.8343 11.5674L21.8804 13.6596C22.0346 13.9681 22.3454 14.1464 22.6684 14.1464C22.8007 14.1464 22.9351 14.1165 23.0614 14.0533C23.4963 13.836 23.6725 13.3072 23.4551 12.8724L22.2772 10.5166C23.8971 9.20952 24.7825 8.04016 24.8244 7.98435C25.059 7.6713 25.059 7.241 24.8243 6.92795ZM20.469 9.68309C17.9846 11.4764 15.3037 12.3857 12.5005 12.3857C9.69724 12.3857 7.01635 11.4764 4.53183 9.68309C3.36197 8.83873 2.5118 7.98469 2.03343 7.45615C2.51205 6.92728 3.36213 6.07332 4.53183 5.22913C7.01635 3.43578 9.69724 2.5266 12.5005 2.5266C15.3037 2.5266 17.9846 3.43586 20.469 5.22913C21.6388 6.07349 22.489 6.92753 22.9674 7.45615C22.4888 7.98494 21.6387 8.8389 20.469 9.68309Z"/>
</g>
<defs>
<clipPath id="clip0">
<rect width="25.0002" height="18" transform="translate(0.00012207)"/>
</clipPath>
</defs>
</svg>
