<svg width="100" height="100" viewBox="0 0 25 14" xmlns="http://www.w3.org/2000/svg">
<path d="M24.824 6.55677C24.7764 6.49313 23.6314 4.98101 21.5511 3.46813C18.7866 1.45752 15.6569 0.394806 12.5002 0.394806C9.34355 0.394806 6.21375 1.45752 3.44927 3.46804C1.36887 4.98101 0.223839 6.49313 0.176196 6.55677C-0.0585691 6.86973 -0.0585691 7.30012 0.176196 7.61308C0.223839 7.67672 1.36887 9.18884 3.44927 10.7018C6.21383 12.7123 9.34355 13.775 12.5002 13.775C15.6569 13.775 18.7867 12.7123 21.5511 10.7017C23.6314 9.18876 24.7763 7.67664 24.824 7.61308C25.0588 7.30012 25.0588 6.86965 24.824 6.55677ZM17.4298 7.08488C17.4298 9.80307 15.2185 12.0145 12.5003 12.0145C9.7821 12.0145 7.57065 9.80307 7.57065 7.08488C7.57065 4.3667 9.78202 2.15533 12.5002 2.15533C15.2184 2.15533 17.4298 4.3667 17.4298 7.08488ZM2.0331 7.0848C2.78529 6.25458 4.45987 4.62032 6.88084 3.46139C6.20457 4.50643 5.81004 5.75012 5.81004 7.08488C5.81004 8.42445 6.20727 9.67226 6.88808 10.7197C6.08521 10.3353 5.29902 9.86587 4.53159 9.31191C3.36172 8.46746 2.51147 7.61342 2.0331 7.0848ZM20.4687 9.31191C19.7013 9.86587 18.9151 10.3351 18.1124 10.7197C18.7931 9.67235 19.1904 8.42437 19.1904 7.08488C19.1904 5.7454 18.7931 4.49751 18.1124 3.45011C18.9151 3.83454 19.7013 4.3039 20.4687 4.85786C21.6385 5.70231 22.4888 6.55635 22.9671 7.08488C22.4884 7.61376 21.6384 8.46763 20.4687 9.31191Z"/>
<path d="M12.5002 8.53734C13.3024 8.53734 13.9527 7.88705 13.9527 7.08489C13.9527 6.28273 13.3024 5.63245 12.5002 5.63245C11.6981 5.63245 11.0478 6.28273 11.0478 7.08489C11.0478 7.88705 11.6981 8.53734 12.5002 8.53734Z"/>
</svg>
