<?xml version="1.0" encoding="UTF-8" standalone="no"?>
<!DOCTYPE svg PUBLIC "-//W3C//DTD SVG 20010904//EN"
              "http://www.w3.org/TR/2001/REC-SVG-20010904/DTD/svg10.dtd">

<svg xmlns="http://www.w3.org/2000/svg"
     width="0.888889in" height="0.888889in"
     viewBox="0 0 64 64">
  <path id="Selection"
        stroke-width="3"
        d="M 24.20,20.00
           C 24.00,17.40 23.85,12.34 24.20,10.00
             27.10,-1.77 38.85,0.00 48.00,0.00
             48.00,0.00 48.00,12.00 48.00,12.00
             40.76,12.01 36.70,11.36 36.00,20.00
             36.00,20.00 48.00,20.00 48.00,20.00
             48.00,20.00 47.00,32.00 47.00,32.00
             47.00,32.00 36.00,32.00 36.00,32.00
             36.00,32.00 36.00,64.00 36.00,64.00
             36.00,64.00 24.00,64.00 24.00,64.00
             24.00,64.00 24.00,32.00 24.00,32.00
             24.00,32.00 16.00,32.00 16.00,32.00
             16.00,32.00 16.00,20.00 16.00,20.00
             16.00,20.00 24.20,20.00 24.20,20.00 Z" />
</svg>
