<?xml version="1.0" encoding="UTF-8" standalone="no"?>
<!DOCTYPE svg PUBLIC "-//W3C//DTD SVG 20010904//EN"
              "http://www.w3.org/TR/2001/REC-SVG-20010904/DTD/svg10.dtd">

<svg xmlns="http://www.w3.org/2000/svg"
     width="0.888889in" height="0.888889in"
     viewBox="0 0 64 64">
  <path id="Selection"
        stroke-width="3"
        d="M 32.00,27.00
           C 32.00,27.00 55.00,27.00 55.00,27.00
             56.94,27.00 60.72,26.75 62.26,27.99
             66.44,31.37 61.90,46.11 59.64,50.00
             52.98,61.48 43.32,64.14 31.00,64.00
             26.20,63.94 23.47,63.42 19.00,61.54
             -10.78,48.99 -3.72,0.41 31.00,0.00
             37.90,-0.08 42.84,0.20 48.98,3.88
             51.21,5.22 53.99,6.98 52.83,10.00
             51.89,12.47 47.68,15.80 45.00,15.95
             41.27,16.15 37.67,11.57 31.00,12.51
             17.56,14.39 8.45,30.20 16.65,42.00
             26.38,56.01 42.92,54.54 50.00,39.00
             50.00,39.00 32.00,39.00 32.00,39.00
             32.00,39.00 32.00,27.00 32.00,27.00 Z" />
</svg>
