<?xml version="1.0" encoding="UTF-8" standalone="no"?>
<!DOCTYPE svg PUBLIC "-//W3C//DTD SVG 20010904//EN"
              "http://www.w3.org/TR/2001/REC-SVG-20010904/DTD/svg10.dtd">

<svg xmlns="http://www.w3.org/2000/svg"
     width="0.888889in" height="0.888889in"
     viewBox="0 0 64 64">
  <path id="Selection"
        stroke-width="3"
        d="M 0.00,40.00
           C 2.14,32.72 17.07,19.92 23.00,14.00
             24.96,12.05 29.16,7.20 32.00,7.20
             35.16,7.20 41.67,14.67 44.00,17.00
             44.00,17.00 44.00,8.00 44.00,8.00
             44.00,8.00 52.00,8.00 52.00,8.00
             52.00,8.00 53.02,25.00 53.02,25.00
             53.02,25.00 64.00,40.00 64.00,40.00
             64.00,40.00 56.00,40.00 56.00,40.00
             56.00,40.00 56.00,60.00 56.00,60.00
             56.00,60.00 36.00,60.00 36.00,60.00
             36.00,60.00 36.00,48.00 36.00,48.00
             36.00,48.00 28.00,48.00 28.00,48.00
             28.00,48.00 28.00,60.00 28.00,60.00
             28.00,60.00 8.00,60.00 8.00,60.00
             8.00,60.00 8.00,40.00 8.00,40.00
             8.00,40.00 0.00,40.00 0.00,40.00 Z" />
</svg>
