<?xml version="1.0" encoding="UTF-8" standalone="no"?>
<!DOCTYPE svg PUBLIC "-//W3C//DTD SVG 20010904//EN"
              "http://www.w3.org/TR/2001/REC-SVG-20010904/DTD/svg10.dtd">

<svg xmlns="http://www.w3.org/2000/svg"
     width="1.11111in" height="1.11111in"
     viewBox="0 0 100 100">
  <path id="Selection #1"
        stroke-width="3"
        d="M 70.02,16.74
           C 73.74,15.87 77.44,15.77 80.43,18.65
             84.78,22.83 83.51,31.67 77.91,34.15
             67.14,38.90 57.34,23.73 70.02,16.74 Z
           M 28.00,85.00
           C 27.59,97.76 21.16,97.06 11.00,97.00
             9.22,96.99 6.18,97.17 4.74,96.01
             2.30,94.03 2.95,85.12 3.00,82.00
             3.15,74.18 6.73,72.28 12.00,67.00
             12.00,67.00 30.78,48.17 30.78,48.17
             35.20,43.04 31.18,41.42 32.17,32.00
             33.06,23.59 37.37,14.94 44.01,9.68
             61.54,-4.18 88.06,3.48 94.97,25.00
             96.25,28.99 97.20,32.78 96.83,37.00
             95.35,53.69 83.04,66.59 66.00,66.99
             66.00,66.99 54.46,66.21 54.46,66.21
             51.90,66.72 50.24,69.84 47.91,71.40
             45.29,73.16 42.99,72.96 40.00,73.00
             39.85,77.17 40.21,78.52 36.00,80.00
             35.03,85.49 33.05,84.93 28.00,85.00 Z
           M 34.00,74.00
           C 34.76,64.76 38.43,68.90 44.00,65.40
             46.67,63.73 48.92,60.58 52.00,59.69
             55.01,58.82 57.87,60.77 63.00,60.96
             71.91,61.28 82.35,56.10 86.44,48.00
             99.26,22.62 72.28,-0.44 50.00,13.97
             41.17,19.67 38.95,26.14 39.00,36.00
             39.00,36.00 39.89,47.00 39.89,47.00
             39.39,49.59 35.69,53.61 34.00,56.00
             40.55,59.60 35.76,63.18 32.00,67.00
             26.20,72.88 13.18,84.28 10.00,91.00
             14.24,91.00 19.44,91.73 21.40,86.94
             22.37,84.60 21.58,81.70 23.59,79.59
             23.59,79.59 34.00,74.00 34.00,74.00 Z
           M 34.00,56.00
           C 34.00,56.00 33.00,56.00 33.00,56.00
             33.00,56.00 34.00,57.00 34.00,57.00
             34.00,57.00 34.00,56.00 34.00,56.00 Z
           M 33.00,57.00
           C 33.00,57.00 32.00,57.00 32.00,57.00
             32.00,57.00 33.00,58.00 33.00,58.00
             33.00,58.00 33.00,57.00 33.00,57.00 Z
           M 32.00,58.00
           C 32.00,58.00 31.00,58.00 31.00,58.00
             31.00,58.00 32.00,59.00 32.00,59.00
             32.00,59.00 32.00,58.00 32.00,58.00 Z
           M 31.00,59.00
           C 31.00,59.00 30.00,59.00 30.00,59.00
             30.00,59.00 31.00,60.00 31.00,60.00
             31.00,60.00 31.00,59.00 31.00,59.00 Z
           M 30.00,60.00
           C 30.00,60.00 29.00,60.00 29.00,60.00
             29.00,60.00 30.00,61.00 30.00,61.00
             30.00,61.00 30.00,60.00 30.00,60.00 Z
           M 29.00,61.00
           C 29.00,61.00 28.00,61.00 28.00,61.00
             28.00,61.00 29.00,62.00 29.00,62.00
             29.00,62.00 29.00,61.00 29.00,61.00 Z
           M 28.00,62.00
           C 28.00,62.00 27.00,62.00 27.00,62.00
             27.00,62.00 28.00,63.00 28.00,63.00
             28.00,63.00 28.00,62.00 28.00,62.00 Z
           M 27.00,63.00
           C 27.00,63.00 26.00,63.00 26.00,63.00
             26.00,63.00 27.00,64.00 27.00,64.00
             27.00,64.00 27.00,63.00 27.00,63.00 Z
           M 26.00,64.00
           C 26.00,64.00 25.00,64.00 25.00,64.00
             25.00,64.00 26.00,65.00 26.00,65.00
             26.00,65.00 26.00,64.00 26.00,64.00 Z
           M 25.00,65.00
           C 25.00,65.00 24.00,65.00 24.00,65.00
             24.00,65.00 25.00,66.00 25.00,66.00
             25.00,66.00 25.00,65.00 25.00,65.00 Z
           M 24.00,66.00
           C 24.00,66.00 23.00,66.00 23.00,66.00
             23.00,66.00 24.00,67.00 24.00,67.00
             24.00,67.00 24.00,66.00 24.00,66.00 Z
           M 23.00,67.00
           C 23.00,67.00 22.00,67.00 22.00,67.00
             22.00,67.00 23.00,68.00 23.00,68.00
             23.00,68.00 23.00,67.00 23.00,67.00 Z
           M 22.00,68.00
           C 22.00,68.00 21.00,68.00 21.00,68.00
             21.00,68.00 22.00,69.00 22.00,69.00
             22.00,69.00 22.00,68.00 22.00,68.00 Z
           M 21.00,69.00
           C 21.00,69.00 20.00,69.00 20.00,69.00
             20.00,69.00 21.00,70.00 21.00,70.00
             21.00,70.00 21.00,69.00 21.00,69.00 Z
           M 20.00,70.00
           C 20.00,70.00 19.00,70.00 19.00,70.00
             19.00,70.00 20.00,71.00 20.00,71.00
             20.00,71.00 20.00,70.00 20.00,70.00 Z
           M 19.00,71.00
           C 19.00,71.00 18.00,71.00 18.00,71.00
             18.00,71.00 19.00,72.00 19.00,72.00
             19.00,72.00 19.00,71.00 19.00,71.00 Z
           M 18.00,72.00
           C 18.00,72.00 17.00,72.00 17.00,72.00
             17.00,72.00 18.00,73.00 18.00,73.00
             18.00,73.00 18.00,72.00 18.00,72.00 Z
           M 17.00,73.00
           C 17.00,73.00 16.00,73.00 16.00,73.00
             16.00,73.00 17.00,74.00 17.00,74.00
             17.00,74.00 17.00,73.00 17.00,73.00 Z
           M 16.00,74.00
           C 16.00,74.00 15.00,74.00 15.00,74.00
             15.00,74.00 16.00,75.00 16.00,75.00
             16.00,75.00 16.00,74.00 16.00,74.00 Z
           M 15.00,75.00
           C 15.00,75.00 14.00,75.00 14.00,75.00
             14.00,75.00 15.00,76.00 15.00,76.00
             15.00,76.00 15.00,75.00 15.00,75.00 Z
           M 14.00,76.00
           C 14.00,76.00 13.00,76.00 13.00,76.00
             13.00,76.00 14.00,77.00 14.00,77.00
             14.00,77.00 14.00,76.00 14.00,76.00 Z
           M 13.00,77.00
           C 13.00,77.00 12.00,77.00 12.00,77.00
             12.00,77.00 13.00,78.00 13.00,78.00
             13.00,78.00 13.00,77.00 13.00,77.00 Z
           M 12.00,78.00
           C 12.00,78.00 11.00,78.00 11.00,78.00
             11.00,78.00 12.00,79.00 12.00,79.00
             12.00,79.00 12.00,78.00 12.00,78.00 Z
           M 11.00,79.00
           C 11.00,79.00 10.00,79.00 10.00,79.00
             10.00,79.00 11.00,80.00 11.00,80.00
             11.00,80.00 11.00,79.00 11.00,79.00 Z" />
</svg>
