<?xml version="1.0" encoding="UTF-8" standalone="no"?>
<!DOCTYPE svg PUBLIC "-//W3C//DTD SVG 20010904//EN"
              "http://www.w3.org/TR/2001/REC-SVG-20010904/DTD/svg10.dtd">

<svg xmlns="http://www.w3.org/2000/svg"
     width="3.55556in" height="3.55556in"
     viewBox="0 0 256 256">
  <path id="Selection"
        stroke-width="3"
        d="M 93.00,152.00
           C 92.34,148.72 91.11,145.34 92.06,142.00
             92.94,138.87 96.83,134.11 96.60,131.58
             96.60,131.58 91.87,122.00 91.87,122.00
             89.30,116.11 87.31,108.43 87.04,102.00
             86.63,92.35 89.46,81.26 94.46,73.00
             94.46,73.00 103.38,60.00 103.38,60.00
             104.33,57.18 103.21,54.27 103.38,51.00
             103.61,46.28 104.76,39.49 106.22,35.00
             111.55,18.48 126.13,5.00 143.00,0.90
             148.23,-0.37 154.56,-0.02 160.00,0.00
             182.70,0.11 202.57,18.19 207.33,40.00
             207.95,42.82 209.02,50.24 208.90,53.00
             208.77,55.90 207.42,61.45 208.02,63.96
             208.61,66.38 216.18,73.67 218.57,77.00
             224.90,85.82 228.92,97.04 228.92,108.00
             228.92,121.23 222.96,135.43 213.83,144.91
             213.83,144.91 198.02,157.38 198.02,157.38
             196.78,159.37 197.00,162.69 197.00,165.00
             197.00,165.00 197.00,233.00 197.00,233.00
             196.98,244.14 194.79,244.08 186.00,250.63
             183.20,252.71 179.66,255.74 176.00,255.74
             171.53,255.74 158.28,245.81 156.17,241.91
             154.49,238.79 154.70,233.16 156.17,230.00
             157.03,228.14 158.98,226.06 158.99,224.00
             158.99,221.27 155.86,219.14 155.86,216.00
             155.86,212.86 158.99,210.73 158.99,208.00
             158.99,204.92 155.24,202.87 155.96,199.00
             156.42,196.54 158.99,194.45 158.99,192.00
             158.99,189.27 155.86,187.14 155.86,184.00
             155.86,180.86 158.99,178.73 158.99,176.00
             158.98,173.69 156.78,171.83 155.74,169.00
             153.98,164.23 156.59,159.47 152.69,155.90
             146.54,150.28 142.78,154.38 133.00,152.00
             131.29,157.43 125.88,165.69 122.85,171.00
             122.85,171.00 103.20,205.00 103.20,205.00
             100.88,208.90 93.22,223.32 90.62,225.41
             87.65,227.80 69.76,229.94 66.21,228.40
             63.35,227.16 62.15,223.66 61.00,221.00
             58.02,214.08 53.45,208.16 57.44,201.02
             61.75,193.31 65.12,195.22 67.23,192.44
             69.07,190.02 67.03,186.89 67.91,184.21
             69.02,180.82 73.98,179.90 77.00,179.00
             74.52,170.40 74.99,166.94 85.00,166.00
             83.18,156.91 81.93,153.60 93.00,152.00 Z
           M 199.00,60.00
           C 199.00,44.09 199.23,33.41 186.91,21.09
             170.29,4.47 140.24,4.65 124.18,22.04
             115.04,31.94 113.00,42.08 113.00,55.00
             126.28,48.02 138.19,45.15 153.00,49.16
             153.00,49.16 168.00,55.38 168.00,55.38
             171.68,56.21 173.35,54.72 179.00,55.38
             192.38,57.10 190.93,58.54 199.00,60.00 Z
           M 157.00,59.00
           C 149.13,55.66 145.30,55.91 137.00,56.00
             114.01,56.27 95.18,77.42 95.18,100.00
             95.18,105.63 97.47,114.96 99.99,120.00
             101.46,122.94 105.82,128.34 106.03,131.00
             106.28,134.32 101.92,139.48 100.85,143.00
             98.89,149.44 105.71,155.14 96.98,158.87
             96.98,158.87 93.00,160.00 93.00,160.00
             93.14,163.15 94.42,168.09 92.39,170.57
             90.37,173.04 86.74,172.83 85.61,175.43
             84.60,177.74 86.47,181.06 84.94,183.72
             82.13,188.62 77.16,184.28 77.58,193.00
             78.11,204.23 66.85,198.41 64.95,206.05
             64.18,209.12 68.65,217.81 70.00,221.00
             73.35,220.56 83.08,219.74 85.39,218.05
             87.81,216.28 93.54,205.25 95.42,202.00
             95.42,202.00 115.72,167.00 115.72,167.00
             118.42,162.26 126.00,147.29 130.10,145.02
             132.32,143.80 135.52,144.01 138.00,144.00
             135.10,137.56 130.67,133.98 127.09,124.00
             120.80,106.45 126.14,86.66 138.44,73.09
             145.80,64.96 152.11,63.88 157.00,59.00 Z
           M 197.00,69.00
           C 169.79,53.95 132.38,72.75 132.00,105.00
             131.82,120.87 135.22,132.12 148.00,142.67
             154.04,147.66 159.77,148.68 162.40,152.21
             165.30,156.10 163.07,161.82 164.60,166.00
             165.95,169.69 169.74,172.10 170.40,175.00
             171.24,178.71 167.19,180.75 167.19,184.00
             167.19,186.53 169.91,188.66 170.40,191.00
             171.19,194.81 167.19,196.72 167.19,200.00
             167.19,202.84 170.53,205.01 170.53,208.00
             170.53,210.99 167.19,213.16 167.19,216.00
             167.19,218.84 170.54,221.05 170.53,224.00
             170.49,228.62 161.61,232.63 165.03,238.70
             165.86,240.19 167.68,241.59 169.02,242.62
             174.50,246.84 176.25,247.50 182.00,243.35
             183.61,242.19 185.97,240.42 186.98,238.70
             188.22,236.58 188.00,233.41 188.00,231.00
             188.00,231.00 188.00,161.00 188.00,161.00
             188.00,158.53 187.80,155.30 189.02,153.10
             190.88,149.74 195.77,148.01 199.00,146.12
             203.46,143.52 207.38,139.98 210.67,136.00
             226.00,117.44 222.62,87.06 203.00,73.00
             203.00,73.00 198.90,80.00 198.90,80.00
             196.84,83.08 192.65,87.05 191.61,90.00
             190.15,94.13 193.59,102.66 183.96,108.86
             171.67,116.76 156.10,103.31 162.08,90.00
             164.90,83.73 171.18,80.16 178.00,80.99
             182.22,81.51 184.23,83.60 186.96,82.71
             191.18,81.33 195.30,72.91 197.00,69.00 Z
           M 180.00,88.00
           C 173.66,88.02 171.06,87.74 168.00,94.00
             172.70,93.26 177.30,92.19 180.00,88.00 Z
           M 184.00,96.00
           C 184.00,96.00 170.00,101.00 170.00,101.00
             175.78,106.71 182.71,103.93 184.00,96.00 Z" />
</svg>
