<?xml version="1.0" encoding="UTF-8" standalone="no"?>
<!DOCTYPE svg PUBLIC "-//W3C//DTD SVG 20010904//EN"
              "http://www.w3.org/TR/2001/REC-SVG-20010904/DTD/svg10.dtd">

<svg xmlns="http://www.w3.org/2000/svg"
     width="22.575mm" height="22.575mm"
     viewBox="0 0 64 64">
  <path id="Selection"
        stroke-width="3"
        d="M 32.00,49.00
           C 32.00,49.00 14.00,49.00 14.00,49.00
             11.27,48.95 8.53,48.97 6.60,46.69
             5.01,44.80 5.05,42.32 5.00,40.00
             5.00,40.00 5.00,15.00 5.00,15.00
             5.01,12.71 4.87,9.27 6.17,7.31
             7.91,4.71 11.25,5.02 14.00,5.00
             21.41,4.95 31.49,2.44 31.00,13.00
             36.57,13.00 52.84,11.55 56.40,15.57
             58.03,17.41 57.95,19.70 58.00,22.00
             58.00,22.00 58.00,49.00 58.00,49.00
             57.96,51.34 58.09,54.42 56.26,56.18
             54.34,58.02 50.50,57.97 48.00,58.00
             39.73,58.10 31.84,60.25 32.00,49.00 Z
           M 41.00,47.00
           C 41.00,47.00 31.42,18.00 31.42,18.00
             31.42,18.00 27.28,7.99 27.28,7.99
             27.28,7.99 9.00,6.00 9.00,6.00
             5.69,13.14 6.90,28.67 7.00,37.00
             7.03,39.30 7.03,42.70 8.31,44.69
             9.88,47.10 12.44,46.95 15.00,47.00
             15.00,47.00 41.00,47.00 41.00,47.00 Z
           M 56.00,16.00
           C 56.00,16.00 33.00,16.00 33.00,16.00
             33.00,16.00 34.00,22.00 34.00,22.00
             34.00,22.00 36.00,27.00 36.00,27.00
             39.19,26.96 40.78,27.47 43.00,25.00
             43.00,25.00 45.00,25.00 45.00,25.00
             47.34,27.61 49.68,26.99 53.00,27.00
             53.00,27.00 49.00,30.00 49.00,30.00
             49.00,30.00 47.00,34.00 47.00,34.00
             47.00,34.00 45.00,39.00 45.00,39.00
             45.00,39.00 51.00,44.00 51.00,44.00
             51.00,44.00 42.00,41.00 42.00,41.00
             44.00,50.36 42.70,48.92 37.00,56.00
             37.00,56.00 55.00,56.00 55.00,56.00
             56.94,49.19 56.00,24.65 56.00,16.00 Z
           M 20.00,18.00
           C 24.28,22.33 26.67,29.98 27.00,36.00
             23.38,33.31 21.24,25.62 16.78,32.95
             16.78,32.95 15.00,36.00 15.00,36.00
             14.54,30.34 17.75,23.26 20.00,18.00 Z
           M 34.00,19.00
           C 34.00,19.00 33.00,19.00 33.00,19.00
             33.00,19.00 34.00,20.00 34.00,20.00
             34.00,20.00 34.00,19.00 34.00,19.00 Z
           M 22.00,23.00
           C 22.00,23.00 20.00,23.00 20.00,23.00
             20.00,23.00 19.00,27.00 19.00,27.00
             19.00,27.00 22.00,27.00 22.00,27.00
             22.00,27.00 22.00,23.00 22.00,23.00 Z
           M 49.00,29.00
           C 49.00,29.00 38.00,29.00 38.00,29.00
             38.00,29.00 38.00,34.00 38.00,34.00
             38.00,34.00 42.00,32.00 42.00,32.00
             42.00,32.00 45.00,36.00 45.00,36.00
             45.00,36.00 49.00,29.00 49.00,29.00 Z
           M 41.00,34.00
           C 41.00,34.00 40.00,34.00 40.00,34.00
             40.00,34.00 41.00,35.00 41.00,35.00
             41.00,35.00 41.00,34.00 41.00,34.00 Z
           M 41.00,36.00
           C 41.00,36.00 40.00,39.00 40.00,39.00
             40.00,39.00 41.00,36.00 41.00,36.00 Z
           M 41.00,49.00
           C 41.00,49.00 34.00,49.00 34.00,49.00
             34.00,49.00 36.00,55.00 36.00,55.00
             36.00,55.00 41.00,49.00 41.00,49.00 Z" />
</svg>
