<?xml version="1.0" encoding="UTF-8" standalone="no"?>
<!DOCTYPE svg PUBLIC "-//W3C//DTD SVG 20010904//EN"
              "http://www.w3.org/TR/2001/REC-SVG-20010904/DTD/svg10.dtd">

<svg xmlns="http://www.w3.org/2000/svg"
     width="0.888889in" height="0.888889in"
     viewBox="0 0 64 64">
  <path id="Selection #1"
        stroke-width="3"
        d="M 10.00,0.00
           C 10.00,0.00 32.00,6.06 32.00,6.06
             32.00,6.06 55.00,0.00 55.00,0.00
             55.00,2.84 54.70,10.61 55.59,12.87
             57.53,17.80 59.93,14.34 60.00,24.00
             60.00,24.00 60.00,56.00 60.00,56.00
             60.00,56.00 33.00,48.42 33.00,48.42
             33.00,48.42 17.00,51.00 17.00,51.00
             14.15,54.51 8.34,55.61 4.00,56.00
             4.00,56.00 4.00,24.00 4.00,24.00
             4.00,24.00 5.02,16.49 5.02,16.49
             5.02,16.49 9.40,11.78 9.40,11.78
             9.40,11.78 10.00,0.00 10.00,0.00 Z
           M 52.00,2.00
           C 52.00,2.00 34.00,9.00 34.00,9.00
             34.00,9.00 52.00,14.00 52.00,14.00
             52.00,14.00 52.00,2.00 52.00,2.00 Z
           M 30.00,10.00
           C 30.00,10.00 6.00,17.00 6.00,17.00
             6.00,17.00 6.00,53.00 6.00,53.00
             6.00,53.00 30.00,46.00 30.00,46.00
             30.00,46.00 30.00,10.00 30.00,10.00 Z
           M 54.00,43.00
           C 54.00,43.00 47.07,22.29 47.07,22.29
             47.07,22.29 44.00,20.00 44.00,20.00
             44.00,20.00 37.00,34.00 37.00,34.00
             37.00,34.00 37.00,38.00 37.00,38.00
             37.00,38.00 40.00,39.00 40.00,39.00
             40.00,39.00 41.00,35.00 41.00,35.00
             41.00,35.00 47.70,37.85 47.70,37.85
             47.70,37.85 54.00,43.00 54.00,43.00 Z
           M 43.00,55.00
           C 43.00,55.00 49.00,56.00 49.00,56.00
             49.00,56.00 47.00,62.00 47.00,62.00
             43.55,60.52 41.60,62.65 38.00,63.47
             31.15,65.03 18.92,64.61 15.00,58.00
             15.00,58.00 29.00,61.82 29.00,61.82
             29.00,61.82 44.00,59.00 44.00,59.00
             44.00,59.00 43.00,55.00 43.00,55.00 Z" />
</svg>
