<?xml version="1.0" encoding="UTF-8" standalone="no"?>
<!DOCTYPE svg PUBLIC "-//W3C//DTD SVG 20010904//EN"
              "http://www.w3.org/TR/2001/REC-SVG-20010904/DTD/svg10.dtd">

<svg xmlns="http://www.w3.org/2000/svg"
     width="0.888889in" height="0.888889in"
     viewBox="0 0 64 64">
  <path id="Selection"
        stroke-width="3"
        d="M 26.00,0.36
           C 29.28,-0.01 32.68,-0.24 36.00,0.36
             40.19,0.71 43.55,2.49 46.53,5.47
             57.22,16.15 50.65,34.58 44.74,46.00
             43.10,49.18 35.84,61.77 32.86,62.66
             30.69,63.32 29.22,61.42 28.04,59.94
             26.03,57.42 21.36,49.97 19.78,47.00
             12.01,32.36 4.27,7.44 26.00,0.36 Z
           M 32.00,8.60
           C 15.25,10.45 18.52,31.40 32.00,31.40
             45.48,31.40 48.75,10.45 32.00,8.60 Z" />
</svg>
