<?xml version="1.0" encoding="UTF-8" standalone="no"?>
<!DOCTYPE svg PUBLIC "-//W3C//DTD SVG 20010904//EN"
              "http://www.w3.org/TR/2001/REC-SVG-20010904/DTD/svg10.dtd">

<svg xmlns="http://www.w3.org/2000/svg"
     width="0.888889in" height="0.888889in"
     viewBox="0 0 64 64">
  <path id="Selection #1"
        stroke-width="3"
        d="M 51.00,18.00
           C 52.39,18.23 53.18,18.14 54.48,18.99
             56.90,20.59 61.93,29.09 61.86,32.00
             61.79,34.70 56.63,43.47 54.39,45.01
             53.13,45.87 52.36,45.77 51.00,46.00
             51.00,46.00 57.00,34.00 57.00,34.00
             57.00,34.00 24.00,34.00 24.00,34.00
             24.00,34.00 24.00,30.00 24.00,30.00
             24.00,30.00 57.00,29.00 57.00,29.00
             57.00,29.00 51.00,18.00 51.00,18.00 Z
           M 0.00,0.00
           C 0.00,0.00 46.00,0.00 46.00,0.00
             46.00,0.00 46.00,18.00 46.00,18.00
             46.00,18.00 41.00,18.00 41.00,18.00
             41.00,18.00 41.00,5.00 41.00,5.00
             41.00,5.00 5.00,5.00 5.00,5.00
             5.00,5.00 5.00,51.00 5.00,51.00
             5.14,58.43 7.04,58.95 14.00,59.00
             14.00,59.00 41.00,59.00 41.00,59.00
             41.00,59.00 41.00,45.00 41.00,45.00
             41.00,45.00 46.00,45.00 46.00,45.00
             46.00,45.00 46.00,64.00 46.00,64.00
             46.00,64.00 0.00,64.00 0.00,64.00
             0.00,64.00 0.00,0.00 0.00,0.00 Z" />
</svg>
