<?xml version="1.0" encoding="UTF-8" standalone="no"?>
<!DOCTYPE svg PUBLIC "-//W3C//DTD SVG 20010904//EN"
              "http://www.w3.org/TR/2001/REC-SVG-20010904/DTD/svg10.dtd">

<svg xmlns="http://www.w3.org/2000/svg"
     width="0.888889in" height="0.888889in"
     viewBox="0 0 80 80">
  <path id="Selection"
        stroke-width="3"
        d="M 59.00,20.00
           C 59.43,18.77 59.38,17.95 60.59,17.02
             63.47,14.83 75.31,15.44 73.16,22.96
             72.25,26.13 67.56,29.01 65.00,31.00
             65.00,31.00 74.00,29.00 74.00,29.00
             74.00,29.00 74.00,34.00 74.00,34.00
             74.00,34.00 59.00,34.00 59.00,34.00
             60.98,27.57 63.80,28.42 66.04,23.99
             67.62,20.85 66.60,18.67 62.95,19.15
             62.95,19.15 59.00,20.00 59.00,20.00 Z
           M 25.00,42.00
           C 30.35,37.55 39.42,37.31 43.00,44.00
             44.93,42.29 46.52,40.68 49.00,39.74
             50.57,39.14 52.34,39.04 54.00,39.02
             68.62,38.84 65.00,57.09 65.00,67.00
             65.00,67.00 70.00,67.00 70.00,67.00
             70.00,67.00 70.00,71.00 70.00,71.00
             70.00,71.00 50.00,71.00 50.00,71.00
             50.00,71.00 50.00,67.00 50.00,67.00
             50.00,67.00 54.00,67.00 54.00,67.00
             54.00,67.00 53.00,45.00 53.00,45.00
             50.92,45.17 49.13,45.12 47.43,46.60
             43.76,49.79 45.00,62.17 45.00,67.00
             45.00,67.00 48.00,67.00 48.00,67.00
             48.00,67.00 48.00,71.00 48.00,71.00
             48.00,71.00 30.00,71.00 30.00,71.00
             30.00,71.00 30.00,67.00 30.00,67.00
             30.00,67.00 32.93,67.00 32.93,67.00
             32.93,67.00 32.93,50.02 32.93,50.02
             32.46,47.55 31.08,44.93 28.11,46.17
             22.58,48.48 24.00,61.93 24.00,67.00
             24.00,67.00 28.00,67.00 28.00,67.00
             28.00,67.00 28.00,71.00 28.00,71.00
             28.00,71.00 9.00,71.00 9.00,71.00
             9.00,71.00 9.00,67.00 9.00,67.00
             9.00,67.00 13.00,67.00 13.00,67.00
             13.00,67.00 13.00,44.00 13.00,44.00
             13.00,44.00 9.00,44.00 9.00,44.00
             9.00,44.00 9.00,40.00 9.00,40.00
             14.23,40.00 20.58,38.84 25.00,42.00 Z" />
</svg>
