<?xml version="1.0" encoding="UTF-8" standalone="no"?>
<!DOCTYPE svg PUBLIC "-//W3C//DTD SVG 20010904//EN"
              "http://www.w3.org/TR/2001/REC-SVG-20010904/DTD/svg10.dtd">

<svg xmlns="http://www.w3.org/2000/svg"
     width="0.888889in" height="0.888889in"
     viewBox="0 0 80 80">
  <path id="Selection #2"
        stroke-width="3"
        d="M 9.06,55.74
           C 14.48,54.39 26.84,54.97 33.00,55.00
             35.46,55.01 38.68,54.89 40.85,56.17
             44.84,58.53 44.84,64.47 40.85,66.83
             38.52,68.21 34.67,68.00 32.00,68.00
             27.78,68.01 11.98,68.48 9.06,67.26
             3.42,64.91 4.15,58.74 9.06,55.74 Z
           M 8.11,34.74
           C 13.60,33.35 35.96,33.91 43.00,34.00
             56.01,34.18 53.48,43.79 50.57,46.26
             48.16,48.31 43.99,48.00 41.00,48.00
             41.00,48.00 14.00,48.00 14.00,48.00
             1.75,47.83 2.05,38.59 8.11,34.74 Z
           M 8.11,14.74
           C 13.39,13.40 22.27,14.00 28.00,14.00
             28.00,14.00 63.00,14.00 63.00,14.00
             65.63,14.00 69.50,13.78 71.77,15.17
             75.82,17.65 75.82,24.35 71.77,26.83
             69.50,28.22 65.63,28.00 63.00,28.00
             63.00,28.00 16.00,28.00 16.00,28.00
             13.37,28.00 9.50,28.22 7.23,26.83
             2.31,23.82 3.65,17.57 8.11,14.74 Z" />
</svg>
