<?xml version="1.0" encoding="UTF-8" standalone="no"?>
<!DOCTYPE svg PUBLIC "-//W3C//DTD SVG 20010904//EN"
              "http://www.w3.org/TR/2001/REC-SVG-20010904/DTD/svg10.dtd">

<svg xmlns="http://www.w3.org/2000/svg"
     width="0.888889in" height="0.888889in"
     viewBox="0 0 64 64">
  <path id="Selection"
        stroke-width="3"
        d="M 50.00,0.74
           C 54.69,-0.38 59.21,-0.28 62.26,4.11
             65.54,8.82 63.67,17.41 58.96,18.66
             55.96,19.46 52.90,15.87 51.00,14.00
             45.80,8.86 41.53,5.34 50.00,0.74 Z
           M 0.00,64.00
           C 0.33,60.02 2.19,49.29 3.98,46.00
             6.05,42.21 23.67,25.33 28.00,21.00
             31.65,17.35 38.39,7.64 44.00,11.37
             46.40,12.97 53.80,20.10 53.80,23.00
             53.80,26.33 44.57,34.43 42.00,37.00
             37.77,41.23 21.77,57.96 18.00,60.02
             14.71,61.81 3.98,63.67 0.00,64.00 Z
           M 42.00,20.00
           C 36.35,24.05 18.05,42.35 14.00,48.00
             14.00,48.00 16.00,50.00 16.00,50.00
             16.00,50.00 17.00,50.00 17.00,50.00
             17.00,50.00 44.00,22.00 44.00,22.00
             44.00,22.00 42.00,20.00 42.00,20.00 Z" />
</svg>
