<?xml version="1.0" encoding="UTF-8" standalone="no"?>
<!DOCTYPE svg PUBLIC "-//W3C//DTD SVG 20010904//EN"
              "http://www.w3.org/TR/2001/REC-SVG-20010904/DTD/svg10.dtd">

<svg xmlns="http://www.w3.org/2000/svg"
     width="0.888889in" height="0.888889in"
     viewBox="0 0 64 64">
  <path id="Selection"
        stroke-width="3"
        d="M 44.00,43.00
           C 47.55,45.93 54.22,53.02 56.35,57.00
             57.28,58.74 58.57,62.43 55.69,63.18
             53.34,63.78 51.02,61.38 49.58,59.89
             47.62,57.89 41.02,49.80 39.39,48.96
             37.28,47.88 30.09,50.58 27.00,50.82
             21.79,51.21 15.25,49.40 11.00,46.36
             -9.06,32.03 -0.15,0.60 24.00,0.01
             48.57,-0.58 59.23,24.79 44.00,43.00 Z
           M 22.00,5.33
           C 14.33,7.17 7.90,12.16 5.64,20.00
             2.10,32.22 11.32,44.63 24.00,44.98
             27.54,45.08 30.69,45.07 34.00,43.64
             54.39,34.82 47.44,2.58 22.00,5.33 Z" />
</svg>
