<?xml version="1.0" encoding="UTF-8" standalone="no"?>
<!DOCTYPE svg PUBLIC "-//W3C//DTD SVG 20010904//EN"
              "http://www.w3.org/TR/2001/REC-SVG-20010904/DTD/svg10.dtd">

<svg xmlns="http://www.w3.org/2000/svg"
     width="0.888889in" height="0.888889in"
     viewBox="0 0 64 64">
  <path id="Selection"
        stroke-width="3"
        d="M 3.00,4.00
           C 3.00,4.00 27.00,14.69 27.00,14.69
             27.00,14.69 46.00,22.42 46.00,22.42
             46.00,22.42 63.00,30.00 63.00,30.00
             58.34,35.29 51.19,37.18 45.00,40.25
             45.00,40.25 3.00,59.00 3.00,59.00
             5.45,51.73 9.36,46.23 13.72,40.00
             15.09,38.03 18.64,33.91 18.57,31.58
             18.50,29.52 15.22,24.87 14.05,23.00
             11.10,18.28 4.78,8.65 3.00,4.00 Z
           M 59.00,29.00
           C 59.00,29.00 58.00,29.00 58.00,29.00
             58.00,29.00 59.00,30.00 59.00,30.00
             59.00,30.00 59.00,29.00 59.00,29.00 Z
           M 61.00,30.00
           C 61.00,30.00 60.00,30.00 60.00,30.00
             60.00,30.00 61.00,31.00 61.00,31.00
             61.00,31.00 61.00,30.00 61.00,30.00 Z" />
</svg>
