<?xml version="1.0" encoding="UTF-8" standalone="no"?>
<!DOCTYPE svg PUBLIC "-//W3C//DTD SVG 20010904//EN"
              "http://www.w3.org/TR/2001/REC-SVG-20010904/DTD/svg10.dtd">

<svg xmlns="http://www.w3.org/2000/svg"
     width="0.888889in" height="0.888889in"
     viewBox="0 0 64 64">
  <path id="Selection"
        stroke-width="3"
        d="M 12.00,0.96
           C 19.52,-0.90 20.48,0.62 27.00,0.96
             27.00,0.96 34.00,0.96 34.00,0.96
             44.78,2.18 53.79,7.36 59.10,17.00
             62.80,23.71 62.37,28.83 62.80,36.00
             62.80,36.00 63.90,43.00 63.90,43.00
             64.71,52.25 61.57,60.31 52.00,63.20
             45.53,65.16 41.95,63.29 36.00,62.32
             36.00,62.32 26.00,61.82 26.00,61.82
             18.31,60.86 10.50,55.51 6.47,49.00
             1.29,40.65 2.06,36.97 1.35,28.00
             1.35,28.00 0.21,22.00 0.21,22.00
             -1.17,11.75 2.17,4.57 12.00,0.96 Z
           M 45.00,23.00
           C 44.86,21.22 44.90,19.75 43.98,18.11
             39.96,10.94 24.48,11.23 19.51,17.21
             15.25,22.34 17.43,28.75 23.02,31.70
             25.40,32.96 29.32,33.59 32.00,34.44
             34.70,35.30 39.38,37.14 37.83,40.88
             34.94,47.89 27.23,42.78 23.58,40.28
             21.86,39.03 19.49,37.85 18.13,40.28
             16.11,44.02 21.18,47.35 24.00,48.44
             30.56,50.98 39.81,50.75 44.57,44.89
             45.54,43.70 46.19,42.49 46.55,41.00
             49.82,27.67 30.71,29.04 26.50,24.74
             23.20,21.39 28.61,16.55 35.00,19.30
             40.01,21.46 38.45,22.48 45.00,23.00 Z" />
</svg>
