<?xml version="1.0" encoding="UTF-8" standalone="no"?>
<!DOCTYPE svg PUBLIC "-//W3C//DTD SVG 20010904//EN"
              "http://www.w3.org/TR/2001/REC-SVG-20010904/DTD/svg10.dtd">

<svg xmlns="http://www.w3.org/2000/svg"
     width="0.888889in" height="0.888889in"
     viewBox="0 0 64 64">
  <path id="Selection"
        stroke-width="3"
        d="M 31.00,1.00
           C 31.00,1.00 33.00,1.00 33.00,1.00
             34.58,5.52 39.59,17.61 43.21,20.26
             46.22,22.47 59.82,23.81 64.00,24.00
             64.00,24.00 49.64,42.00 49.64,42.00
             49.64,42.00 52.00,63.00 52.00,63.00
             52.00,63.00 32.00,53.81 32.00,53.81
             32.00,53.81 12.00,63.00 12.00,63.00
             12.00,63.00 14.36,42.00 14.36,42.00
             14.36,42.00 0.00,24.00 0.00,24.00
             4.18,23.81 17.78,22.47 20.79,20.26
             24.62,17.46 29.12,5.70 31.00,1.00 Z" />
</svg>
