<?xml version="1.0" encoding="UTF-8" standalone="no"?>
<!DOCTYPE svg PUBLIC "-//W3C//DTD SVG 20010904//EN"
              "http://www.w3.org/TR/2001/REC-SVG-20010904/DTD/svg10.dtd">

<svg xmlns="http://www.w3.org/2000/svg"
     width="0.888889in" height="0.888889in"
     viewBox="0 0 64 64">
  <path id="Selection"
        stroke-width="3"
        d="M 20.00,8.00
           C 20.03,5.86 19.73,2.50 21.60,1.02
             23.79,-0.71 37.20,-0.64 38.98,1.60
             40.16,3.09 39.98,6.17 40.00,8.00
             40.00,8.00 32.00,8.00 32.00,8.00
             32.00,8.00 32.00,12.00 32.00,12.00
             58.84,13.32 65.24,50.00 42.00,61.62
             37.57,63.84 34.82,64.00 30.00,64.00
             25.18,64.00 22.43,63.84 18.00,61.62
             -5.22,50.01 1.06,13.32 28.00,12.00
             28.00,12.00 28.00,8.00 28.00,8.00
             28.00,8.00 20.00,8.00 20.00,8.00 Z
           M 29.00,19.00
           C 3.20,20.44 5.77,57.42 30.00,57.42
             54.23,57.42 56.80,20.44 31.00,19.00
             31.00,19.00 32.00,40.00 32.00,40.00
             32.00,40.00 28.00,40.00 28.00,40.00
             28.00,40.00 29.00,19.00 29.00,19.00 Z" />
</svg>
