<?xml version="1.0" encoding="UTF-8" standalone="no"?>
<!DOCTYPE svg PUBLIC "-//W3C//DTD SVG 20010904//EN"
              "http://www.w3.org/TR/2001/REC-SVG-20010904/DTD/svg10.dtd">

<svg xmlns="http://www.w3.org/2000/svg"
     width="0.888889in" height="0.888889in"
     viewBox="0 0 64 64">
  <path id="Selection"
        stroke-width="3"
        d="M 29.60,1.03
           C 38.01,-2.23 36.57,9.31 34.40,10.97
             29.66,14.62 25.45,6.80 29.60,1.03 Z
           M 10.31,9.04
           C 17.85,6.83 20.56,15.54 17.40,17.97
             13.82,20.73 4.67,15.14 10.31,9.04 Z
           M 49.06,9.04
           C 57.23,6.85 57.19,15.19 51.94,17.97
             46.35,20.95 41.66,14.74 49.06,9.04 Z
           M 27.00,16.56
           C 33.46,15.43 39.88,15.82 44.44,21.19
             51.60,29.59 47.97,44.57 37.00,47.44
             15.53,53.08 7.18,23.49 27.00,16.56 Z
           M 32.00,22.65
           C 17.92,24.61 21.32,41.35 32.00,41.35
             42.68,41.35 46.08,24.61 32.00,22.65 Z
           M 1.60,28.81
           C 3.95,28.02 7.21,27.38 9.69,28.81
             12.24,29.85 12.31,33.45 10.40,34.98
             7.57,37.23 -3.54,36.35 1.60,28.81 Z
           M 53.60,28.81
           C 55.95,28.02 59.21,27.38 61.69,28.81
             64.24,29.85 64.31,33.45 62.40,34.98
             59.57,37.23 48.46,36.35 53.60,28.81 Z
           M 12.06,46.03
           C 21.74,43.01 19.62,53.65 13.99,55.34
             9.66,56.64 4.98,51.54 12.06,46.03 Z
           M 46.60,46.03
           C 54.58,42.98 58.54,53.44 52.85,55.34
             48.71,56.73 42.91,51.30 46.60,46.03 Z
           M 29.60,53.03
           C 38.01,49.77 36.57,61.31 34.40,62.97
             29.66,66.62 25.45,58.80 29.60,53.03 Z" />
</svg>
