<?xml version="1.0" encoding="UTF-8" standalone="no"?>
<!DOCTYPE svg PUBLIC "-//W3C//DTD SVG 20010904//EN"
              "http://www.w3.org/TR/2001/REC-SVG-20010904/DTD/svg10.dtd">

<svg xmlns="http://www.w3.org/2000/svg"
     width="0.888889in" height="0.888889in"
     viewBox="0 0 64 64">
  <path id="Selection"
        stroke-width="3"
        d="M 31.00,24.00
           C 31.02,21.79 30.96,19.13 31.57,17.00
             33.72,9.49 40.85,6.81 48.00,8.39
             48.00,8.39 54.42,10.69 54.42,10.69
             56.16,10.93 60.76,9.40 63.00,9.00
             63.00,9.00 59.00,15.00 59.00,15.00
             59.00,15.00 64.00,14.00 64.00,14.00
             64.00,14.00 58.58,23.00 58.58,23.00
             56.73,27.79 57.85,36.25 49.47,47.00
             45.41,52.21 39.22,56.26 33.00,58.45
             24.07,61.60 7.12,60.80 0.00,54.00
             6.88,53.85 11.23,52.93 17.00,49.00
             12.27,47.18 5.29,43.98 9.00,38.00
             4.01,34.83 2.62,31.78 2.00,26.00
             2.00,26.00 6.00,27.00 6.00,27.00
             1.87,20.82 1.13,16.90 4.00,10.00
             19.47,20.93 12.64,18.37 31.00,24.00 Z" />
</svg>
