<?xml version="1.0" encoding="UTF-8" standalone="no"?>
<!DOCTYPE svg PUBLIC "-//W3C//DTD SVG 20010904//EN"
              "http://www.w3.org/TR/2001/REC-SVG-20010904/DTD/svg10.dtd">

<svg xmlns="http://www.w3.org/2000/svg"
     width="0.888889in" height="0.888889in"
     viewBox="0 0 64 64">
  <path id="Selection"
        stroke-width="3"
        d="M 0.00,64.00
           C 0.00,64.00 3.23,50.00 3.23,50.00
             3.85,44.76 0.37,41.27 0.04,33.00
             -0.18,27.55 0.92,21.89 3.38,17.00
             5.37,13.03 8.52,9.15 12.00,6.39
             19.17,0.70 25.25,-0.10 34.00,0.00
             57.05,0.28 70.10,24.66 61.54,45.00
             59.79,49.15 57.37,52.70 53.96,55.68
             49.08,59.94 43.37,62.54 37.00,63.56
             25.99,65.33 20.87,60.93 16.00,60.84
             16.00,60.84 0.00,64.00 0.00,64.00 Z
           M 9.00,56.00
           C 21.98,51.80 20.22,57.11 31.00,57.79
             36.72,58.15 43.43,55.56 47.99,52.21
             51.08,49.94 53.25,47.42 55.01,44.00
             67.78,19.08 37.60,-5.96 16.01,11.39
             13.20,13.65 10.63,16.77 9.00,20.00
             7.19,23.59 5.88,28.98 6.18,33.00
             6.70,39.86 9.55,43.68 9.90,47.00
             9.90,47.00 9.00,56.00 9.00,56.00 Z
           M 49.00,39.00
           C 44.35,56.84 22.48,41.61 17.44,31.00
             15.59,27.11 14.79,19.33 20.04,17.66
             23.72,16.48 25.84,19.88 26.42,23.00
             27.28,27.68 23.94,30.07 30.17,35.31
             31.18,36.16 32.66,37.24 33.97,37.55
             37.03,38.29 38.15,35.72 41.09,35.70
             43.49,35.67 46.92,37.82 49.00,39.00 Z" />
</svg>
